<svg width="177" height="38" viewBox="0 0 177 38" fill="none" xmlns="http://www.w3.org/2000/svg">
<rect x="0.5" y="0.5" width="176" height="37" rx="7.5" fill="white"/>
<rect x="0.5" y="0.5" width="176" height="37" rx="7.5" stroke="#A6A6A6"/>
<g clip-path="url(#clip0_302_394)">
<path d="M26.0383 6.5H12.1616C9.09002 6.5 6.59998 8.99004 6.59998 12.0617V25.9383C6.59998 29.01 9.09002 31.5 12.1616 31.5H26.0383C29.1099 31.5 31.6 29.01 31.6 25.9383V12.0617C31.6 8.99004 29.1099 6.5 26.0383 6.5Z" fill="url(#paint0_linear_302_394)"/>
<path d="M18.3366 28.3867C17.5908 28.12 17.4308 27.7575 17.125 25.6333C16.7691 23.1642 16.6916 21.6358 16.8975 21.1517C17.1708 20.51 17.9125 20.1458 18.95 20.1417C19.9791 20.1375 20.7275 20.505 21.0025 21.1517C21.2091 21.635 21.1316 23.1642 20.7758 25.6333C20.5341 27.3583 20.4008 27.7942 20.0675 28.0875C19.6091 28.4933 18.9591 28.6058 18.3425 28.3875L18.3366 28.3867ZM15.1508 25.8533C12.5758 24.5867 10.9258 22.4433 10.3258 19.5917C10.1758 18.8558 10.1508 17.1 10.2925 16.425C10.6675 14.6125 11.3841 13.195 12.5758 11.9417C14.2925 10.1317 16.5008 9.175 18.9591 9.175C21.3925 9.175 23.5925 10.1142 25.2675 11.87C26.5425 13.195 27.2591 14.5975 27.6258 16.445C27.7508 17.06 27.7508 18.7367 27.6341 19.4283C27.2508 21.615 26.0341 23.6067 24.2591 24.945C23.6258 25.4233 22.0758 26.2583 21.8258 26.2583C21.7341 26.2583 21.7258 26.1633 21.7675 25.7792C21.8425 25.1625 21.9175 25.0342 22.2675 24.8875C22.8258 24.6542 23.7758 23.9775 24.3591 23.3925C25.3675 22.3925 26.1091 21.0842 26.4508 19.7092C26.6675 18.8508 26.6425 16.9425 26.4008 16.0592C25.6425 13.2508 23.3508 11.0675 20.5425 10.4842C19.7258 10.3175 18.2425 10.3175 17.4175 10.4842C14.5758 11.0675 12.2258 13.3592 11.5091 16.2425C11.3175 17.0258 11.3175 18.9342 11.5091 19.7175C11.9841 21.6258 13.2175 23.3758 14.8341 24.4175C15.1508 24.6258 15.5341 24.8425 15.6925 24.9092C16.0425 25.0592 16.1175 25.1842 16.1841 25.8008C16.2258 26.1758 16.2175 26.2842 16.1258 26.2842C16.0675 26.2842 15.6425 26.1008 15.1925 25.8842L15.1508 25.8533ZM15.1841 22.4633C14.3175 21.7717 13.5508 20.545 13.2341 19.3417C13.0425 18.615 13.0425 17.2333 13.2425 16.5083C13.7675 14.5517 15.2091 13.035 17.2091 12.3225C17.8925 12.0808 19.4091 12.0267 20.2508 12.2125C23.1508 12.8583 25.2091 15.7625 24.8091 18.6433C24.6508 19.8042 24.2508 20.7575 23.5425 21.6433C23.1925 22.0908 22.3425 22.8417 22.1925 22.8417C22.1675 22.8417 22.1425 22.5583 22.1425 22.2133V21.5833L22.5758 21.0667C24.2091 19.11 24.0925 16.3767 22.3091 14.5833C21.6175 13.885 20.8175 13.475 19.7841 13.2858C19.1175 13.1625 18.9758 13.1625 18.2758 13.2775C17.2133 13.4508 16.39 13.8625 15.6591 14.5858C13.8675 16.3608 13.7508 19.1083 15.3841 21.0667L15.8141 21.5833V22.2167C15.8141 22.5667 15.7866 22.85 15.7525 22.85C15.7191 22.85 15.4775 22.6833 15.2191 22.475L15.1841 22.4633ZM18.0758 19.0608C17.3341 18.7158 16.9341 18.065 16.9258 17.2167C16.9258 16.4542 17.3508 15.7892 18.0841 15.4C18.5508 15.155 19.3758 15.155 19.8425 15.4017C20.3508 15.6658 20.7675 16.1783 20.9258 16.7133C21.4091 18.3567 19.6675 19.7967 18.0925 19.0608H18.0758Z" fill="white"/>
<path d="M19.0908 19.3842C20.2386 19.3842 21.1691 18.4537 21.1691 17.3058C21.1691 16.158 20.2386 15.2275 19.0908 15.2275C17.943 15.2275 17.0125 16.158 17.0125 17.3058C17.0125 18.4537 17.943 19.3842 19.0908 19.3842Z" fill="white"/>
<path d="M19.29 20.1892C19.4341 20.2083 19.7208 20.2458 19.9858 20.3308C20.2525 20.4142 20.4941 20.545 20.6825 20.6792C20.8658 20.8125 20.9991 20.9508 21.0825 21.1192C21.1658 21.2875 21.2075 21.4875 21.2325 21.815C21.2491 22.1433 21.2491 22.5983 21.1741 23.4483C21.0991 24.2958 20.9491 25.5383 20.8325 26.3342C20.7158 27.1342 20.6325 27.4842 20.5241 27.7425C20.4158 28.0092 20.2741 28.1842 20.1158 28.3092C19.9575 28.4342 19.7741 28.5092 19.5991 28.5508C19.4241 28.5925 19.2658 28.5925 19.1158 28.5925C18.9658 28.5925 18.8241 28.5925 18.6325 28.5508C18.4408 28.5092 18.1908 28.4342 18.0075 28.2842C17.8158 28.1342 17.6908 27.9175 17.5908 27.6342C17.4908 27.3508 17.4158 27.0092 17.3158 26.3258C17.2158 25.6425 17.0825 24.6258 16.9991 23.8508C16.9158 23.0758 16.8825 22.5425 16.8758 22.1842C16.8675 21.8258 16.8841 21.6483 16.9258 21.4758C16.9675 21.3092 17.0341 21.1508 17.1258 21.0175C17.2175 20.8842 17.3375 20.7675 17.4591 20.6758C17.5783 20.5842 17.7008 20.5175 17.8475 20.4658C17.9925 20.4075 18.1666 20.3575 18.3808 20.3158C18.5975 20.2742 18.8475 20.2325 18.9758 20.2158C19.1041 20.1967 19.1041 20.1967 19.2475 20.2158L19.29 20.1892Z" fill="white"/>
</g>
<path d="M37.2152 13.5H41.0648V12.7881H38.0062V7.15869H37.2152V13.5ZM42.6069 8.15625C42.875 8.15625 43.086 7.94092 43.086 7.67725C43.086 7.40918 42.875 7.19824 42.6069 7.19824C42.3433 7.19824 42.1279 7.40918 42.1279 7.67725C42.1279 7.94092 42.3433 8.15625 42.6069 8.15625ZM42.2246 13.5H42.9893V8.92969H42.2246V13.5ZM46.0124 13.5879C47.0319 13.5879 47.7877 13.0254 47.7877 12.2256V12.2212C47.7877 11.5708 47.4538 11.2061 46.5309 10.9819L45.8058 10.8062C45.3004 10.6831 45.0939 10.4678 45.0939 10.1558V10.1514C45.0939 9.74707 45.4367 9.479 45.9904 9.479C46.5573 9.479 46.8957 9.77344 46.9572 10.2173L46.9616 10.248H47.6911L47.6867 10.1909C47.6295 9.42627 46.9923 8.8418 45.9904 8.8418C45.0016 8.8418 44.3117 9.3999 44.3117 10.1865V10.1909C44.3117 10.8501 44.7292 11.25 45.5905 11.4565L46.3156 11.6323C46.8341 11.7598 47.0055 11.9443 47.0055 12.2739V12.2783C47.0055 12.6914 46.6364 12.9507 46.0168 12.9507C45.3927 12.9507 45.0544 12.6826 44.9621 12.2256L44.9533 12.1816H44.1886L44.193 12.2212C44.2853 13.0386 44.9357 13.5879 46.0124 13.5879ZM50.4285 13.5879C50.5779 13.5879 50.7405 13.5703 50.8372 13.5571V12.9375C50.7713 12.9419 50.6834 12.9551 50.5911 12.9551C50.1824 12.9551 49.9671 12.8188 49.9671 12.3311V9.5625H50.8372V8.92969H49.9671V7.69482H49.1761V8.92969H48.5081V9.5625H49.1761V12.3354C49.1761 13.21 49.5892 13.5879 50.4285 13.5879ZM53.768 13.5879C54.7656 13.5879 55.5126 12.9902 55.662 12.2344L55.6708 12.1904H54.9194L54.9062 12.23C54.7744 12.6211 54.3657 12.9111 53.7856 12.9111C52.9726 12.9111 52.454 12.3618 52.4365 11.4214H55.728V11.1401C55.728 9.76904 54.9677 8.8418 53.7197 8.8418C52.4716 8.8418 51.663 9.81299 51.663 11.228V11.2324C51.663 12.6694 52.454 13.5879 53.768 13.5879ZM53.7153 9.51855C54.3832 9.51855 54.8754 9.93604 54.9501 10.8237H52.4496C52.5331 9.97119 53.0517 9.51855 53.7153 9.51855ZM56.8614 13.5H57.626V10.8105C57.626 10.0327 58.0963 9.51855 58.817 9.51855C59.5201 9.51855 59.8673 9.92725 59.8673 10.6699V13.5H60.6319V10.5337C60.6319 9.49219 60.0518 8.8418 59.0499 8.8418C58.3555 8.8418 57.8897 9.15381 57.6436 9.58008H57.626V8.92969H56.8614V13.5ZM66.0672 13.5879C67.3285 13.5879 68.181 12.6738 68.181 11.2148V11.2061C68.181 9.74707 67.3241 8.8418 66.0628 8.8418C64.8016 8.8418 63.9491 9.75146 63.9491 11.2061V11.2148C63.9491 12.6694 64.7972 13.5879 66.0672 13.5879ZM66.0716 12.9111C65.263 12.9111 64.7313 12.2915 64.7313 11.2148V11.2061C64.7313 10.1382 65.2674 9.51855 66.0628 9.51855C66.8714 9.51855 67.3988 10.1338 67.3988 11.2061V11.2148C67.3988 12.2871 66.8758 12.9111 66.0716 12.9111ZM69.3144 13.5H70.0791V10.8105C70.0791 10.0327 70.5493 9.51855 71.27 9.51855C71.9731 9.51855 72.3203 9.92725 72.3203 10.6699V13.5H73.085V10.5337C73.085 9.49219 72.5049 8.8418 71.5029 8.8418C70.8086 8.8418 70.3428 9.15381 70.0967 9.58008H70.0791V8.92969H69.3144V13.5Z" fill="#666666"/>
<path d="M36.8285 30.5H38.8939L40.0629 27.0723H44.9496L46.1097 30.5H48.1752L43.5697 17.8174H41.4427L36.8285 30.5ZM42.4886 19.918H42.5238L44.4135 25.4902H40.5902L42.4886 19.918ZM49.3529 33.5762H51.2513V28.9443H51.2953C51.8402 30.0166 52.9037 30.6846 54.2133 30.6846C56.5336 30.6846 58.0541 28.8301 58.0541 25.8857V25.877C58.0541 22.9238 56.5424 21.0781 54.1869 21.0781C52.8685 21.0781 51.849 21.7461 51.2953 22.8447H51.2513V21.2539H49.3529V33.5762ZM53.6947 29.0498C52.2621 29.0498 51.2426 27.8018 51.2426 25.8857V25.877C51.2426 23.9521 52.2533 22.7041 53.6947 22.7041C55.1801 22.7041 56.1205 23.9082 56.1205 25.877V25.8857C56.1205 27.8369 55.1888 29.0498 53.6947 29.0498ZM59.5306 33.5762H61.4291V28.9443H61.473C62.0179 30.0166 63.0814 30.6846 64.391 30.6846C66.7113 30.6846 68.2318 28.8301 68.2318 25.8857V25.877C68.2318 22.9238 66.7201 21.0781 64.3646 21.0781C63.0463 21.0781 62.0267 21.7461 61.473 22.8447H61.4291V21.2539H59.5306V33.5762ZM63.8724 29.0498C62.4398 29.0498 61.4203 27.8018 61.4203 25.8857V25.877C61.4203 23.9521 62.431 22.7041 63.8724 22.7041C65.3578 22.7041 66.2982 23.9082 66.2982 25.877V25.8857C66.2982 27.8369 65.3666 29.0498 63.8724 29.0498ZM69.7787 30.5H71.6771V17.8174H69.7787V30.5ZM77.5746 30.6846C79.8158 30.6846 81.2396 29.3486 81.5385 27.8809L81.556 27.7842H79.7543L79.7279 27.8545C79.4906 28.5488 78.7435 29.1289 77.6185 29.1289C76.1068 29.1289 75.1488 28.1094 75.1136 26.3604H81.6615V25.7188C81.6615 22.9414 80.0707 21.0781 77.4779 21.0781C74.8851 21.0781 73.2152 23.0117 73.2152 25.9033V25.9121C73.2152 28.8301 74.8588 30.6846 77.5746 30.6846ZM77.4867 22.6338C78.726 22.6338 79.6224 23.416 79.7806 25.0156H75.14C75.307 23.4688 76.2562 22.6338 77.4867 22.6338ZM87.0228 30.5H88.9916V26.167H91.7426C94.2299 26.167 95.9525 24.4707 95.9525 21.9922V21.9746C95.9525 19.4873 94.2299 17.8174 91.7426 17.8174H87.0228V30.5ZM91.2504 19.4785C92.9642 19.4785 93.9486 20.4014 93.9486 21.9834V22.001C93.9486 23.5918 92.9642 24.5146 91.2504 24.5146H88.9916V19.4785H91.2504ZM101.015 30.6846C103.661 30.6846 105.401 28.8564 105.401 25.877V25.8594C105.401 22.8975 103.643 21.0781 101.006 21.0781C98.3783 21.0781 96.6293 22.9062 96.6293 25.8594V25.877C96.6293 28.8477 98.3607 30.6846 101.015 30.6846ZM101.024 29.0938C99.5385 29.0938 98.5717 27.9248 98.5717 25.877V25.8594C98.5717 23.8379 99.5472 22.6689 101.006 22.6689C102.492 22.6689 103.458 23.8379 103.458 25.8594V25.877C103.458 27.916 102.509 29.0938 101.024 29.0938ZM110.323 30.6846C111.65 30.6846 112.669 30.0166 113.223 28.9355H113.258V30.5H115.165V17.8174H113.258V22.8271H113.223C112.669 21.7373 111.615 21.0781 110.305 21.0781C107.985 21.0781 106.455 22.9238 106.455 25.8682V25.877C106.455 28.8213 107.967 30.6846 110.323 30.6846ZM110.824 29.0498C109.321 29.0498 108.398 27.8457 108.398 25.877V25.8682C108.398 23.917 109.329 22.7041 110.824 22.7041C112.247 22.7041 113.267 23.9521 113.267 25.8682V25.877C113.267 27.8018 112.256 29.0498 110.824 29.0498ZM121.089 30.6846C123.313 30.6846 124.86 29.2607 125.062 27.4062L125.071 27.3447H123.243L123.234 27.415C123.005 28.417 122.258 29.0938 121.089 29.0938C119.621 29.0938 118.646 27.9072 118.646 25.8857V25.877C118.646 23.8994 119.604 22.6689 121.08 22.6689C122.32 22.6689 123.023 23.4336 123.225 24.3389L123.243 24.4092H125.053L125.044 24.3477C124.886 22.6074 123.445 21.0781 121.063 21.0781C118.426 21.0781 116.703 22.9326 116.703 25.8594V25.8682C116.703 28.8301 118.391 30.6846 121.089 30.6846ZM129.131 30.667C130.353 30.667 131.425 30.0342 131.961 29.041H131.996V30.5H133.904V24.1279C133.904 22.2734 132.471 21.0781 130.212 21.0781C127.936 21.0781 126.556 22.2998 126.424 23.8906L126.415 23.9873H128.208L128.226 23.9082C128.384 23.1699 129.061 22.6514 130.16 22.6514C131.337 22.6514 131.996 23.2666 131.996 24.2861V24.9805L129.483 25.1299C127.294 25.2617 126.046 26.2461 126.046 27.8545V27.8721C126.046 29.5332 127.286 30.667 129.131 30.667ZM127.962 27.8281V27.8105C127.962 27.0283 128.595 26.5273 129.738 26.457L131.996 26.3164V27.0371C131.996 28.2412 130.986 29.1465 129.65 29.1465C128.63 29.1465 127.962 28.6367 127.962 27.8281ZM139.212 30.6846C141.392 30.6846 142.974 29.5244 142.974 27.8369V27.8281C142.974 26.501 142.253 25.7539 140.364 25.3145L138.861 24.9717C137.868 24.7344 137.49 24.3477 137.49 23.7764V23.7676C137.49 23.0293 138.131 22.5459 139.151 22.5459C140.223 22.5459 140.856 23.1084 140.97 23.917L140.979 23.9785H142.763L142.754 23.873C142.658 22.2998 141.339 21.0781 139.151 21.0781C137.024 21.0781 135.582 22.2119 135.582 23.8643V23.873C135.582 25.2178 136.453 26.0615 138.21 26.4658L139.722 26.8086C140.715 27.0459 141.049 27.3887 141.049 27.9863V27.9951C141.049 28.7422 140.364 29.2168 139.221 29.2168C138.052 29.2168 137.419 28.7158 137.244 27.8633L137.226 27.7754H135.345L135.354 27.8545C135.547 29.542 136.901 30.6846 139.212 30.6846ZM147.694 30.6846C148.08 30.6846 148.441 30.6406 148.661 30.6055V29.1377C148.52 29.1553 148.353 29.1729 148.151 29.1729C147.351 29.1729 146.929 28.8916 146.929 27.9512V22.7656H148.661V21.2539H146.929V18.8457H144.987V21.2539H143.66V22.7656H144.987V28.0654C144.987 29.9111 145.866 30.6846 147.694 30.6846ZM153.697 30.6846C155.876 30.6846 157.458 29.5244 157.458 27.8369V27.8281C157.458 26.501 156.738 25.7539 154.848 25.3145L153.345 24.9717C152.352 24.7344 151.974 24.3477 151.974 23.7764V23.7676C151.974 23.0293 152.616 22.5459 153.635 22.5459C154.707 22.5459 155.34 23.1084 155.454 23.917L155.463 23.9785H157.247L157.239 23.873C157.142 22.2998 155.824 21.0781 153.635 21.0781C151.508 21.0781 150.067 22.2119 150.067 23.8643V23.873C150.067 25.2178 150.937 26.0615 152.695 26.4658L154.206 26.8086C155.2 27.0459 155.534 27.3887 155.534 27.9863V27.9951C155.534 28.7422 154.848 29.2168 153.705 29.2168C152.536 29.2168 151.904 28.7158 151.728 27.8633L151.71 27.7754H149.829L149.838 27.8545C150.032 29.542 151.385 30.6846 153.697 30.6846Z" fill="black"/>
<defs>
<linearGradient id="paint0_linear_302_394" x1="19.0741" y1="31.8175" x2="18.8625" y2="6.5" gradientUnits="userSpaceOnUse">
<stop stop-color="#822CBE"/>
<stop offset="1" stop-color="#D772FB"/>
</linearGradient>
<clipPath id="clip0_302_394">
<rect width="25" height="25" fill="white" transform="translate(6.59998 6.5)"/>
</clipPath>
</defs>
</svg>
