<svg xmlns="http://www.w3.org/2000/svg" xmlns:xlink="http://www.w3.org/1999/xlink" width="500" zoomAndPan="magnify" viewBox="0 0 375 374.999991" height="500" preserveAspectRatio="xMidYMid meet" version="1.0"><defs><g/><clipPath id="c7695770c4"><path d="M 16.855469 33.019531 L 138.804688 33.019531 L 138.804688 346.5625 L 16.855469 346.5625 Z M 16.855469 33.019531 " clip-rule="nonzero"/></clipPath><clipPath id="02d1df673a"><path d="M 28.125 36.816406 L 108.753906 36.816406 L 108.753906 79.886719 L 28.125 79.886719 Z M 28.125 36.816406 " clip-rule="nonzero"/></clipPath><clipPath id="99613d3aa4"><path d="M 28.125 101.199219 L 138.804688 101.199219 L 138.804688 144.269531 L 28.125 144.269531 Z M 28.125 101.199219 " clip-rule="nonzero"/></clipPath><clipPath id="e3a2b5e23a"><path d="M 28.125 236.0625 L 138.804688 236.0625 L 138.804688 279.132812 L 28.125 279.132812 Z M 28.125 236.0625 " clip-rule="nonzero"/></clipPath><clipPath id="62e5f6429d"><path d="M 28.125 167.109375 L 108.753906 167.109375 L 108.753906 210.179688 L 28.125 210.179688 Z M 28.125 167.109375 " clip-rule="nonzero"/></clipPath><clipPath id="9acc46a916"><path d="M 28.125 300.445312 L 108.753906 300.445312 L 108.753906 343.515625 L 28.125 343.515625 Z M 28.125 300.445312 " clip-rule="nonzero"/></clipPath></defs><g fill="#000000" fill-opacity="1"><g transform="translate(37.079808, 345.077704)"><g><path d="M 261.109375 -161.09375 C 278.210938 -155.476562 291.78125 -146.109375 301.8125 -132.984375 C 311.84375 -119.859375 316.859375 -103.554688 316.859375 -84.078125 C 316.859375 -57.234375 306.53125 -36.507812 285.875 -21.90625 C 265.226562 -7.300781 235.140625 0 195.609375 0 L 41.59375 0 L 41.59375 -309.78125 L 186.75 -309.78125 C 223.332031 -309.78125 251.507812 -302.625 271.28125 -288.3125 C 291.050781 -274.007812 300.9375 -254.316406 300.9375 -229.234375 C 300.9375 -213.898438 297.394531 -200.332031 290.3125 -188.53125 C 283.226562 -176.726562 273.492188 -167.582031 261.109375 -161.09375 Z M 99.125 -264.640625 L 99.125 -179.234375 L 180.5625 -179.234375 C 200.625 -179.234375 216.035156 -182.847656 226.796875 -190.078125 C 237.566406 -197.304688 242.953125 -207.851562 242.953125 -221.71875 C 242.953125 -235.875 237.566406 -246.566406 226.796875 -253.796875 C 216.035156 -261.023438 200.625 -264.640625 180.5625 -264.640625 Z M 192.0625 -45.140625 C 236.613281 -45.140625 258.890625 -60.039062 258.890625 -89.84375 C 258.890625 -119.632812 236.613281 -134.53125 192.0625 -134.53125 L 99.125 -134.53125 L 99.125 -45.140625 Z M 192.0625 -45.140625 "/></g></g></g><g clip-path="url(#c7695770c4)"><path fill="#ffffff" d="M 16.855469 33.019531 L 138.804688 33.019531 L 138.804688 346.46875 L 16.855469 346.46875 Z M 16.855469 33.019531 " fill-opacity="1" fill-rule="nonzero"/></g><g clip-path="url(#02d1df673a)"><path fill="#ef3047" d="M 28.125 36.816406 L 108.710938 36.816406 L 108.710938 79.886719 L 28.125 79.886719 Z M 28.125 36.816406 " fill-opacity="1" fill-rule="nonzero"/></g><g clip-path="url(#99613d3aa4)"><path fill="#ef3047" d="M 28.125 101.199219 L 138.828125 101.199219 L 138.828125 144.269531 L 28.125 144.269531 Z M 28.125 101.199219 " fill-opacity="1" fill-rule="nonzero"/></g><g clip-path="url(#e3a2b5e23a)"><path fill="#ef3047" d="M 28.125 236.0625 L 138.828125 236.0625 L 138.828125 279.132812 L 28.125 279.132812 Z M 28.125 236.0625 " fill-opacity="1" fill-rule="nonzero"/></g><g clip-path="url(#62e5f6429d)"><path fill="#ef3047" d="M 28.125 167.109375 L 108.710938 167.109375 L 108.710938 210.179688 L 28.125 210.179688 Z M 28.125 167.109375 " fill-opacity="1" fill-rule="nonzero"/></g><g clip-path="url(#9acc46a916)"><path fill="#ef3047" d="M 28.125 300.445312 L 108.710938 300.445312 L 108.710938 343.515625 L 28.125 343.515625 Z M 28.125 300.445312 " fill-opacity="1" fill-rule="nonzero"/></g></svg>