<svg width="177" height="38" viewBox="0 0 177 38" fill="none" xmlns="http://www.w3.org/2000/svg">
<rect x="0.5" y="0.5" width="176" height="37" rx="7.5" fill="white"/>
<rect x="0.5" y="0.5" width="176" height="37" rx="7.5" stroke="#A6A6A6"/>
<g clip-path="url(#clip0_9_33)">
<path d="M19.0994 6.54123C12.2171 6.54123 6.63763 12.1205 6.63763 19.0028C6.63763 25.8854 12.2171 31.4643 19.0994 31.4643C25.9824 31.4643 31.5613 25.8854 31.5613 19.0028C31.5613 12.121 25.9824 6.54182 19.0992 6.54182L19.0994 6.54123ZM24.8143 24.5144C24.5911 24.8805 24.1119 24.9966 23.7458 24.7719C20.8199 22.9847 17.1366 22.5799 12.7988 23.571C12.3808 23.6662 11.9641 23.4043 11.8689 22.9862C11.7732 22.568 12.0341 22.1513 12.4531 22.0561C17.2001 20.9711 21.272 21.4385 24.5568 23.446C24.9229 23.6707 25.039 24.1484 24.8143 24.5144ZM26.3396 21.1208C26.0583 21.5784 25.4601 21.7228 25.0033 21.4415C21.6536 19.3821 16.5475 18.7859 12.5854 19.9885C12.0716 20.1438 11.5289 19.8542 11.3729 19.3412C11.2181 18.8274 11.5079 18.2857 12.0208 18.1295C16.5466 16.7563 22.1729 17.4214 26.0196 19.7853C26.4765 20.0665 26.6208 20.6647 26.3396 21.121V21.1208ZM26.4705 17.5875C22.4542 15.2019 15.8277 14.9826 11.993 16.1464C11.3772 16.3332 10.726 15.9856 10.5394 15.3698C10.3528 14.7537 10.7001 14.103 11.3164 13.9158C15.7183 12.5795 23.036 12.8377 27.6601 15.5827C28.2152 15.9115 28.3967 16.6268 28.0678 17.1799C27.7405 17.7338 27.0232 17.9164 26.4711 17.5875H26.4705Z" fill="#1ED760"/>
</g>
<path d="M37.2152 13.5H41.0648V12.7881H38.0062V7.15869H37.2152V13.5ZM42.6069 8.15625C42.875 8.15625 43.086 7.94092 43.086 7.67725C43.086 7.40918 42.875 7.19824 42.6069 7.19824C42.3433 7.19824 42.1279 7.40918 42.1279 7.67725C42.1279 7.94092 42.3433 8.15625 42.6069 8.15625ZM42.2246 13.5H42.9893V8.92969H42.2246V13.5ZM46.0124 13.5879C47.0319 13.5879 47.7877 13.0254 47.7877 12.2256V12.2212C47.7877 11.5708 47.4538 11.2061 46.5309 10.9819L45.8058 10.8062C45.3004 10.6831 45.0939 10.4678 45.0939 10.1558V10.1514C45.0939 9.74707 45.4367 9.479 45.9904 9.479C46.5573 9.479 46.8957 9.77344 46.9572 10.2173L46.9616 10.248H47.6911L47.6867 10.1909C47.6295 9.42627 46.9923 8.8418 45.9904 8.8418C45.0016 8.8418 44.3117 9.3999 44.3117 10.1865V10.1909C44.3117 10.8501 44.7292 11.25 45.5905 11.4565L46.3156 11.6323C46.8341 11.7598 47.0055 11.9443 47.0055 12.2739V12.2783C47.0055 12.6914 46.6364 12.9507 46.0168 12.9507C45.3927 12.9507 45.0544 12.6826 44.9621 12.2256L44.9533 12.1816H44.1886L44.193 12.2212C44.2853 13.0386 44.9357 13.5879 46.0124 13.5879ZM50.4285 13.5879C50.5779 13.5879 50.7405 13.5703 50.8372 13.5571V12.9375C50.7713 12.9419 50.6834 12.9551 50.5911 12.9551C50.1824 12.9551 49.9671 12.8188 49.9671 12.3311V9.5625H50.8372V8.92969H49.9671V7.69482H49.1761V8.92969H48.5081V9.5625H49.1761V12.3354C49.1761 13.21 49.5892 13.5879 50.4285 13.5879ZM53.768 13.5879C54.7656 13.5879 55.5126 12.9902 55.662 12.2344L55.6708 12.1904H54.9194L54.9062 12.23C54.7744 12.6211 54.3657 12.9111 53.7856 12.9111C52.9726 12.9111 52.454 12.3618 52.4365 11.4214H55.728V11.1401C55.728 9.76904 54.9677 8.8418 53.7197 8.8418C52.4716 8.8418 51.663 9.81299 51.663 11.228V11.2324C51.663 12.6694 52.454 13.5879 53.768 13.5879ZM53.7153 9.51855C54.3832 9.51855 54.8754 9.93604 54.9501 10.8237H52.4496C52.5331 9.97119 53.0517 9.51855 53.7153 9.51855ZM56.8614 13.5H57.626V10.8105C57.626 10.0327 58.0963 9.51855 58.817 9.51855C59.5201 9.51855 59.8673 9.92725 59.8673 10.6699V13.5H60.6319V10.5337C60.6319 9.49219 60.0518 8.8418 59.0499 8.8418C58.3555 8.8418 57.8897 9.15381 57.6436 9.58008H57.626V8.92969H56.8614V13.5ZM66.0672 13.5879C67.3285 13.5879 68.181 12.6738 68.181 11.2148V11.2061C68.181 9.74707 67.3241 8.8418 66.0628 8.8418C64.8016 8.8418 63.9491 9.75146 63.9491 11.2061V11.2148C63.9491 12.6694 64.7972 13.5879 66.0672 13.5879ZM66.0716 12.9111C65.263 12.9111 64.7313 12.2915 64.7313 11.2148V11.2061C64.7313 10.1382 65.2674 9.51855 66.0628 9.51855C66.8714 9.51855 67.3988 10.1338 67.3988 11.2061V11.2148C67.3988 12.2871 66.8758 12.9111 66.0716 12.9111ZM69.3144 13.5H70.0791V10.8105C70.0791 10.0327 70.5493 9.51855 71.27 9.51855C71.9731 9.51855 72.3203 9.92725 72.3203 10.6699V13.5H73.085V10.5337C73.085 9.49219 72.5049 8.8418 71.5029 8.8418C70.8086 8.8418 70.3428 9.15381 70.0967 9.58008H70.0791V8.92969H69.3144V13.5Z" fill="#666666"/>
<path d="M42.0931 30.7109C45.099 30.7109 46.9271 29.2432 46.9271 26.9316V26.9229C46.9271 24.9629 45.8021 23.8994 43.183 23.3457L41.7943 23.0557C40.2123 22.7129 39.4916 22.1328 39.4916 21.1836V21.1748C39.4916 20.0674 40.4935 19.3203 42.0668 19.3115C43.5697 19.3115 44.5892 20.0234 44.765 21.2012L44.7738 21.3242H46.6898L46.681 21.1748C46.5492 19.0479 44.7386 17.6064 42.0931 17.6064C39.4125 17.6064 37.5052 19.0918 37.4965 21.2539V21.2627C37.4965 23.1436 38.7006 24.2861 41.1879 24.8135L42.5677 25.1035C44.2465 25.4727 44.9408 26.0264 44.9408 27.0459V27.0547C44.9408 28.2412 43.8685 29.0059 42.1722 29.0059C40.476 29.0059 39.307 28.2764 39.1312 27.1074L39.1136 26.9932H37.1976L37.2064 27.125C37.3646 29.3574 39.2455 30.7109 42.0931 30.7109ZM48.474 33.5762H50.3724V28.9443H50.4164C50.9613 30.0166 52.0248 30.6846 53.3344 30.6846C55.6547 30.6846 57.1752 28.8301 57.1752 25.8857V25.877C57.1752 22.9238 55.6635 21.0781 53.308 21.0781C51.9896 21.0781 50.9701 21.7461 50.4164 22.8447H50.3724V21.2539H48.474V33.5762ZM52.8158 29.0498C51.3832 29.0498 50.3636 27.8018 50.3636 25.8857V25.877C50.3636 23.9521 51.3744 22.7041 52.8158 22.7041C54.3011 22.7041 55.2416 23.9082 55.2416 25.877V25.8857C55.2416 27.8369 54.3099 29.0498 52.8158 29.0498ZM62.6244 30.6846C65.2699 30.6846 67.0101 28.8564 67.0101 25.877V25.8594C67.0101 22.8975 65.2523 21.0781 62.6156 21.0781C59.9877 21.0781 58.2386 22.9062 58.2386 25.8594V25.877C58.2386 28.8477 59.9701 30.6846 62.6244 30.6846ZM62.6332 29.0938C61.1478 29.0938 60.181 27.9248 60.181 25.877V25.8594C60.181 23.8379 61.1566 22.6689 62.6156 22.6689C64.101 22.6689 65.0677 23.8379 65.0677 25.8594V25.877C65.0677 27.916 64.1185 29.0938 62.6332 29.0938ZM71.7211 30.6846C72.1078 30.6846 72.4681 30.6406 72.6879 30.6055V29.1377C72.5472 29.1553 72.3802 29.1729 72.1781 29.1729C71.3783 29.1729 70.9564 28.8916 70.9564 27.9512V22.7656H72.6879V21.2539H70.9564V18.8457H69.014V21.2539H67.6869V22.7656H69.014V28.0654C69.014 29.9111 69.8929 30.6846 71.7211 30.6846ZM75.2894 19.8301C75.9135 19.8301 76.3969 19.3379 76.3969 18.7402C76.3969 18.1338 75.9135 17.6416 75.2894 17.6416C74.6742 17.6416 74.182 18.1338 74.182 18.7402C74.182 19.3379 74.6742 19.8301 75.2894 19.8301ZM74.3402 30.5H76.2386V21.2539H74.3402V30.5ZM78.7523 30.5H80.6595V22.7656H82.5052V21.2539H80.6244V20.3047C80.6244 19.4873 81.0287 19.0742 81.8812 19.0742C82.1185 19.0742 82.3558 19.0918 82.5404 19.1182V17.7119C82.2855 17.668 81.8636 17.6328 81.4769 17.6328C79.5961 17.6328 78.7523 18.4766 78.7523 20.2695V21.2539H77.4779V22.7656H78.7523V30.5ZM85.0892 33.585C86.8998 33.585 87.8666 32.8467 88.5521 30.9307L91.9974 21.2539H89.9935L87.6644 28.7773H87.6029L85.2738 21.2539H83.2172L86.5834 30.5088L86.4252 30.9482C86.1088 31.8447 85.6166 32.082 84.7201 32.082C84.4652 32.082 84.2455 32.0469 84.0961 32.0117V33.4971C84.3246 33.541 84.7201 33.585 85.0892 33.585Z" fill="black"/>
<defs>
<clipPath id="clip0_9_33">
<rect width="25" height="25" fill="white" transform="translate(6.59998 6.5)"/>
</clipPath>
</defs>
</svg>
